<svg width="60" height="60" viewBox="0 0 60 60" fill="none" xmlns="http://www.w3.org/2000/svg">
    <path d="M7.5 15.9649C7.5 14.7538 8.36345 13.772 9.42858 13.772L16.0892 13.7708C17.4125 13.7327 18.5801 12.7758 19.0304 11.3603C19.0422 11.3231 19.0558 11.2772 19.1046 11.1106L19.3916 10.1314C19.5673 9.53103 19.7203 9.00795 19.9344 8.54043C20.7802 6.6934 22.3452 5.4108 24.1537 5.08243C24.6114 4.9993 25.0962 4.99965 25.6528 5.00005H34.3478C34.9043 4.99965 35.389 4.9993 35.8468 5.08243C37.6553 5.4108 39.2202 6.6934 40.066 8.54043C40.2803 9.00795 40.4333 9.53103 40.6087 10.1314L40.8957 11.1106C40.9445 11.2772 40.9583 11.3231 40.97 11.3603C41.4205 12.7758 42.8195 13.7338 44.1428 13.772H50.5715C51.6365 13.772 52.5 14.7538 52.5 15.9649C52.5 17.1761 51.6365 18.1579 50.5715 18.1579H9.42858C8.36345 18.1579 7.5 17.1761 7.5 15.9649Z" fill="white"/>
    <path fill-rule="evenodd" clip-rule="evenodd" d="M23.5636 28.7038C24.594 28.5953 25.5127 29.3868 25.6157 30.4713L26.8657 43.6293C26.9687 44.7138 26.217 45.681 25.1867 45.7895C24.1563 45.898 23.2375 45.1065 23.1344 44.022L21.8844 30.864C21.7814 29.7795 22.5332 28.8123 23.5636 28.7038Z" fill="white"/>
    <path fill-rule="evenodd" clip-rule="evenodd" d="M36.4367 28.7038C37.4669 28.8123 38.2187 29.7795 38.1157 30.864L36.8657 44.022C36.7627 45.1065 35.8439 45.898 34.8134 45.7895C33.7832 45.681 33.0314 44.7138 33.1344 43.6293L34.3844 30.4713C34.4874 29.3868 35.4062 28.5953 36.4367 28.7038Z" fill="white"/>
    <path opacity="0.5" d="M28.989 55.0002H31.011C37.9677 55.0002 41.4463 55.0002 43.7078 52.7855C45.9695 50.5707 46.2007 46.9377 46.6635 39.6715L47.3302 29.2017C47.5815 25.2592 47.707 23.2881 46.5723 22.0389C45.4378 20.7898 43.5218 20.7898 39.69 20.7898H20.3101C16.4782 20.7898 14.5622 20.7898 13.4276 22.0389C12.293 23.2881 12.4186 25.2592 12.6697 29.2017L13.3365 39.6715C13.7992 46.9377 14.0306 50.5707 16.2922 52.7855C18.5538 55.0002 22.0322 55.0002 28.989 55.0002Z" fill="white"/>
</svg>