<svg width="45" height="45" viewBox="0 0 45 45" fill="none" xmlns="http://www.w3.org/2000/svg">
    <g clip-path="url(#clip0_269_2368)">
        <path fill-rule="evenodd" clip-rule="evenodd" d="M3.75 22.5C3.75 12.1447 12.1447 3.75 22.5 3.75C32.8552 3.75 41.25 12.1447 41.25 22.5C41.25 32.8552 32.8552 41.25 22.5 41.25C12.1447 41.25 3.75 32.8552 3.75 22.5ZM16.875 21.5625C16.875 18.9737 18.9737 16.875 21.5625 16.875C24.1513 16.875 26.25 18.9737 26.25 21.5625C26.25 24.1513 24.1513 26.25 21.5625 26.25C18.9737 26.25 16.875 24.1513 16.875 21.5625ZM21.5625 13.125C16.9026 13.125 13.125 16.9026 13.125 21.5625C13.125 26.2224 16.9026 30 21.5625 30C23.2134 30 24.7538 29.5258 26.0544 28.7063L28.6742 31.3258C29.4064 32.058 30.5936 32.058 31.3258 31.3258C32.058 30.5936 32.058 29.4064 31.3258 28.6742L28.7063 26.0544C29.5258 24.7538 30 23.2134 30 21.5625C30 16.9026 26.2224 13.125 21.5625 13.125Z" fill="#B45624"/>
    </g>
    <defs>
        <clipPath id="clip0_269_2368">
            <rect width="45" height="45" fill="white"/>
        </clipPath>
    </defs>
</svg>